<svg xmlns="http://www.w3.org/2000/svg" viewBox="94.5 92.2 237.2 240.8" aria-label="Magnifying Glass Gear Research Line Style Icon"><path d="M192.2 322.38c-1.34 0-2.61-.6-3.47-1.63-.85-1.04-1.2-2.4-.95-3.72 2.35-12.3 2.76-25.22.87-27.64-3.33-4.27-9.38-7.14-15.08-7.14-.63 0-1.26.04-1.86.11-3.05.38-11.9 9.8-18.94 20.17a4.484 4.484 0 01-3.3 1.95c-.14.02-.28.02-.42.02-1.19 0-2.34-.47-3.19-1.32l-27.7-27.7a4.489 4.489 0 01-1.3-3.61c.12-1.33.84-2.54 1.95-3.3 10.37-7.04 19.79-15.89 20.17-18.93.74-5.97-2.28-13.25-7.03-16.95-.06-.05-1.6-1.18-8.08-1.18-8.71 0-19.45 2.03-19.56 2.05a4.502 4.502 0 01-5.345-4.42v-39.18a4.503 4.503 0 015.345-4.42c.11.02 10.85 2.05 19.56 2.05 6.48 0 8.02-1.13 8.08-1.18 4.75-3.7 7.77-10.98 7.03-16.95-.38-3.04-9.8-11.89-20.17-18.93a4.502 4.502 0 01-1.95-3.3c-.13-1.34.35-2.66 1.3-3.61l27.7-27.71a4.544 4.544 0 013.61-1.29c1.33.12 2.55.84 3.3 1.95 7.04 10.36 15.89 19.79 18.94 20.17.6.07 1.22.11 1.86.11 5.7 0 11.75-2.87 15.08-7.14 1.89-2.43 1.48-15.35-.87-27.64-.25-1.32.1-2.683.95-3.715a4.51 4.51 0 013.47-1.632h39.18a4.495 4.495 0 014.42 5.347c-2.35 12.3-2.75 25.22-.87 27.64 3.33 4.27 9.39 7.14 15.08 7.14.63 0 1.26-.04 1.87-.11 3.04-.38 11.89-9.81 18.94-20.17a4.464 4.464 0 013.29-1.95c.15-.02.29-.02.43-.02 1.19 0 2.33.47 3.18 1.31l27.71 27.71c.95.95 1.42 2.27 1.29 3.61a4.502 4.502 0 01-1.95 3.3c-10.36 7.04-19.79 15.89-20.17 18.93-.74 5.97 2.28 13.25 7.04 16.95.06.05 1.59 1.18 8.07 1.18 8.71 0 19.46-2.03 19.56-2.05.28-.06.57-.08.85-.08 1.04 0 2.06.36 2.87 1.03 1.03.86 1.63 2.13 1.63 3.47v39.18c0 1.34-.6 2.61-1.63 3.47a4.508 4.508 0 01-3.72.95c-.1-.02-10.85-2.05-19.56-2.05-6.48 0-8.01 1.13-8.07 1.18-4.76 3.7-7.78 10.98-7.04 16.94.69 5.55-4.36 12.58-8.71 17.51-1.38 1.57-13.77 15.29-22.91 15.29h-.01c-.37 0-.74-.02-1.09-.07-.61-.07-1.24-.11-1.88-.11-5.68 0-11.74 2.87-15.07 7.14-1.88 2.42-1.48 15.34.87 27.64.25 1.32-.1 2.68-.95 3.72a4.51 4.51 0 01-3.47 1.63H192.2"/><path d="M231.38 92.223H192.2a8.995 8.995 0 00-6.93 3.261 8.99 8.99 0 00-1.91 7.426c1.87 9.8 2.54 21.19 1.47 24.36-2.51 2.96-7.17 5.08-11.26 5.08-.3 0-.6-.01-.88-.03-3.02-1.5-10.6-10.03-16.2-18.28a8.98 8.98 0 00-7.44-3.94c-2.38 0-4.67.94-6.37 2.63l-27.7 27.71c-1.9 1.9-2.85 4.54-2.6 7.21s1.68 5.09 3.91 6.6c8.25 5.61 16.78 13.19 18.27 16.2.34 4.21-1.79 9.37-5.03 12.12-.53.16-2.13.52-5.66.52-8.26 0-18.61-1.95-18.72-1.97a8.995 8.995 0 00-7.423 1.91 8.977 8.977 0 00-3.262 6.93v39.18c0 2.68 1.195 5.23 3.265 6.94a9.02 9.02 0 007.43 1.9c.1-.02 10.45-1.97 18.71-1.97 3.53 0 5.13.36 5.66.52 3.24 2.75 5.38 7.9 5.03 12.13-1.5 3.01-10.03 10.59-18.27 16.19a8.99 8.99 0 00-1.31 13.81l27.7 27.71a9.032 9.032 0 007.21 2.59 8.98 8.98 0 006.6-3.9c5.61-8.25 13.19-16.79 16.2-18.28.29-.02.58-.03.88-.03 4.09 0 8.75 2.11 11.26 5.07 1.08 3.19.4 14.58-1.47 24.37-.5 2.63.19 5.35 1.91 7.42a8.99 8.99 0 006.93 3.27h39.18c2.69 0 5.23-1.2 6.94-3.27s2.41-4.79 1.9-7.42c-1.86-9.8-2.54-21.19-1.47-24.37 2.52-2.96 7.17-5.07 11.26-5.07.45 0 .89.02 1.31.07.54.07 1.09.11 1.66.11 10.61 0 22.8-12.87 26.29-16.81 10.88-12.33 10.07-18.89 9.8-21.04-.54-4.3 1.63-9.71 4.98-12.55.53-.16 2.13-.52 5.66-.52 8.31 0 18.61 1.95 18.72 1.97a9.037 9.037 0 007.43-1.9 9.034 9.034 0 003.26-6.94v-39.18c0-2.68-1.2-5.23-3.26-6.94a9.037 9.037 0 00-7.43-1.9c-.1.02-10.45 1.97-18.72 1.97-3.53 0-5.13-.36-5.66-.52-3.24-2.75-5.37-7.91-5.03-12.12 1.49-3.01 10.03-10.59 18.28-16.2 2.22-1.51 3.65-3.93 3.9-6.6s-.7-5.31-2.59-7.21l-27.71-27.71a9.01 9.01 0 00-13.81 1.31c-5.61 8.25-13.19 16.78-16.2 18.28-.28.02-.58.03-.88.03-4.09 0-8.74-2.12-11.26-5.08-1.07-3.18-.4-14.57 1.47-24.36a8.984 8.984 0 00-1.9-7.426 9 9 0 00-6.94-3.261zm0 8.997s-4.79 25.09 0 31.25c4.25 5.46 11.74 8.88 18.63 8.88.81 0 1.63-.05 2.42-.15 7.76-.96 22.11-22.1 22.11-22.1l27.7 27.7s-21.14 14.36-22.1 22.11c-.94 7.48 2.63 16.3 8.73 21.05 2.06 1.6 6.21 2.13 10.84 2.13 9.26 0 20.41-2.13 20.41-2.13v39.18s-11.15-2.13-20.41-2.13c-4.63 0-8.78.53-10.84 2.13-6.1 4.75-9.67 13.56-8.73 21.05.94 7.58-19.02 27.74-27.16 27.74-.19 0-.37-.01-.55-.04-.79-.09-1.61-.14-2.42-.14-6.89 0-14.38 3.42-18.63 8.88-4.79 6.16 0 31.25 0 31.25H192.2s4.8-25.09 0-31.25c-4.25-5.46-11.74-8.88-18.63-8.88-.81 0-1.62.05-2.42.14-7.76.97-22.1 22.11-22.1 22.11l-27.71-27.7s21.14-14.35 22.1-22.11c.94-7.48-2.62-16.3-8.73-21.05-2.05-1.6-6.21-2.13-10.84-2.13-9.26 0-20.41 2.13-20.41 2.13v-39.18s11.15 2.13 20.41 2.13c4.63 0 8.79-.53 10.84-2.13 6.1-4.75 9.67-13.57 8.73-21.05-.96-7.75-22.1-22.11-22.1-22.11l27.71-27.7s14.34 21.14 22.1 22.1c.8.1 1.6.15 2.42.15 6.89 0 14.38-3.42 18.63-8.88 4.8-6.16 0-31.25 0-31.25h39.18" fill="#d230f9"/><path d="M214.11 172.67c-10.51 0-20.47 4.02-28.02 11.32-16.02 15.46-16.47 41.06-1.02 57.07 7.68 7.95 17.99 12.32 29.04 12.32 10.51 0 20.46-4.02 28.03-11.31 16.01-15.46 16.46-41.05 1.01-57.07-7.67-7.95-17.99-12.33-29.04-12.33zm91.66 155.81c-1.2-.02-2.33-.52-3.16-1.37l-8.79-9.11a4.497 4.497 0 01-.1-6.14l-31.36-32.5-18.65-7.71c-.57-.24-1.09-.59-1.52-1.04l-5.07-5.25a57.47 57.47 0 01-23.07 4.85c-15.65 0-30.25-6.2-41.11-17.45-10.61-10.99-16.3-25.47-16.03-40.74.27-15.29 6.47-29.54 17.47-40.16 10.72-10.34 24.83-16.04 39.73-16.04 15.66 0 30.29 6.2 41.17 17.48 16.66 17.27 20.63 43.23 10.32 64.59l5.06 5.25c.45.46.8 1.01 1.01 1.62l6.43 18.22 31.95 33.11c.81-.68 1.84-1.05 2.9-1.05h.08c1.19.01 2.33.51 3.16 1.37l8.79 9.11c1.72 1.78 1.67 4.63-.12 6.36l-15.89 15.33c-.84.82-1.96 1.27-3.12 1.27h-.08"/><path d="M214.11 248.88c-9.82 0-18.98-3.89-25.8-10.95-13.73-14.22-13.33-36.97.9-50.7 6.72-6.48 15.56-10.05 24.9-10.06 9.82 0 18.98 3.89 25.8 10.95 13.73 14.24 13.33 36.98-.9 50.71-6.72 6.48-15.56 10.05-24.9 10.05zm0-97.56c-16.07 0-31.29 6.14-42.86 17.3-11.86 11.45-18.55 26.83-18.84 43.31-.3 16.49 5.85 32.09 17.3 43.96 11.71 12.13 27.45 18.82 44.34 18.82 7.5 0 14.97-1.38 21.95-4.03l2.95 3.06c.86.89 1.9 1.6 3.04 2.07l17.78 7.35 28.54 29.57c-.7 2.9.05 6.09 2.27 8.39l8.79 9.11a8.988 8.988 0 006.32 2.75h.16c2.33 0 4.57-.91 6.25-2.53l3.01-2.91 9.86-9.51 3.02-2.92c3.57-3.45 3.67-9.14.22-12.72l-8.78-9.1a9.006 9.006 0 00-6.32-2.75h-.16c-.62 0-1.23.06-1.83.18l-29.1-30.16-6.11-17.29a8.957 8.957 0 00-2.01-3.26l-2.95-3.06c9.44-22.45 4.8-48.92-12.43-66.78-11.74-12.16-27.51-18.85-44.41-18.85zm0 106.56c11.22 0 22.45-4.18 31.15-12.58 17.83-17.19 18.33-45.6 1.13-63.42-8.8-9.12-20.53-13.71-32.28-13.71-11.22.01-22.45 4.18-31.15 12.58-17.82 17.21-18.33 45.61-1.12 63.43 8.8 9.12 20.53 13.7 32.27 13.7m0-97.56c13.8 0 27.59 5.38 37.93 16.1 16.8 17.41 19.18 43.38 7.5 63.27l.8-.78 7.09 7.35 6.75 19.14 35.75 37.05 3.02-2.91 8.78 9.1-3.01 2.91-9.86 9.52-3.01 2.91-8.79-9.11 3.01-2.91-35.45-36.73-.14.14-19.05-7.88-7.09-7.35.8-.76a52.829 52.829 0 01-25.09 6.33c-13.78 0-27.54-5.37-37.87-16.07-20.22-20.95-19.62-54.32 1.32-74.54 10.23-9.87 23.43-14.78 36.61-14.78" fill="#d230f9"/><path d="M216.22 186.51c-3.95 0-7.79.45-11.41 1.51-2.71.78-5.29 1.92-7.65 3.46-3.52 2.31-6.5 5.58-8.49 9.7-2 4.12-3.02 9.03-3.02 14.67a4.5 4.5 0 009 0c0-4.06.65-7.28 1.71-9.82.79-1.91 1.8-3.45 3.02-4.74 1.82-1.94 4.14-3.36 6.98-4.33s6.2-1.45 9.86-1.45c2.48 0 4.5-2.02 4.5-4.5a4.5 4.5 0 00-4.5-4.5" fill="#d230f9"/></svg>