<svg xmlns="http://www.w3.org/2000/svg" version="1.0" viewBox="121.3 82.2 184.9 260.4" aria-label="Practicing Figure Yoga Half Line Colour Style Icon" fill="#d230f9"><path d="M181.55 297.85c-.41 0-.83-.1-1.21-.31a2.51 2.51 0 01-.98-3.4c11.04-19.94 9.13-41.57 5.58-56.21-1.74-7.15-4.52-14.24-8.26-21.06l-33.77-61.46c-3.14-5.71-1.32-12.98 4.13-16.54l49.3-32.22a17.88 17.88 0 005.82-6.25l6.59-15.33a4.136 4.136 0 014.67-2.44c1.96.4 3.33 2.08 3.33 4.08v25.5c0 .77-.36 1.5-.97 1.98l-51.79 40.1c4.44 7.62 21.52 36.6 29.75 46.11 4.81 5.55 7.87 4.07 8.88 3.59 1.92-.93 3.17-3.04 3.17-5.37v-8.16a2.5 2.5 0 015 0v8.16c0 4.24-2.35 8.11-5.99 9.87-2.81 1.36-8.47 2.54-14.83-4.81-9.62-11.1-30.47-47.16-31.35-48.69-.64-1.12-.36-2.57.66-3.36l52.48-40.64V90.77l-5.04 11.72c-.03.07-.07.14-.1.21a22.847 22.847 0 01-7.52 8.14l-49.3 32.22c-3.28 2.14-4.37 6.52-2.49 9.95l33.77 61.46c3.96 7.21 6.9 14.71 8.74 22.29 3.76 15.5 5.76 38.46-6.07 59.81-.47.82-1.32 1.28-2.2 1.28z" fill="inherit"/><path d="M248.3 298.17c-.97 0-1.9-.57-2.3-1.52-11.13-26.2-7.1-52.69-3.71-66.16 1.34-5.32 3.39-10.51 6.09-15.43l33.91-61.72c1.99-3.62.84-8.23-2.62-10.49l-48.99-32.01a22.765 22.765 0 01-7.52-8.14c-.04-.07-.07-.14-.1-.21l-5.04-11.72v20.22l52.55 40.69c.99.77 1.26 2.14.64 3.22-.88 1.53-21.65 37.52-31.4 48.77-6.36 7.35-12.02 6.17-14.83 4.81-3.64-1.76-5.99-5.63-5.99-9.87v-8.16a2.5 2.5 0 015 0v8.16c0 2.33 1.24 4.44 3.17 5.37 1.01.49 4.07 1.97 8.88-3.59 8.19-9.46 25.27-38.42 29.75-46.11L214 114.18c-.61-.47-.97-1.2-.97-1.98V86.7c0-2 1.37-3.68 3.33-4.08 1.96-.4 3.88.6 4.67 2.43l6.59 15.33c1.4 2.52 3.41 4.68 5.82 6.25l48.99 32.01c5.63 3.68 7.51 11.19 4.27 17.08l-33.91 61.72c-2.5 4.54-4.39 9.33-5.62 14.24-3.24 12.85-7.1 38.13 3.46 62.98.54 1.27-.05 2.74-1.32 3.28-.35.16-.68.23-1.01.23z" fill="inherit"/><path d="M300.82 305.82c-4.73-7.04-17.62-11.61-27.35-11.95-.85-.03-1.72-.05-2.59-.05-7.93 0-16.19 1.24-25.25 3.8-.24.09-.5.16-.76.22-11.98 3.46-23.66 8.78-32.5 13.03-.81.39-1.66.6-2.53.65 12.73 8.42 25.03 17.65 36.58 26.32l.93.7h2.31c.82.01 1.56.01 2.3.01 37.76 0 46.5-11.87 49.79-20.79 1.71-4.65 1.42-8.44-.93-11.94z" fill="#a737c2"/><path d="M173.58 340.15c-13.4-.34-38.34-.98-47.59-15.18-3.96-6.09-4.69-11.67-2.15-16.6 3.54-6.87 15.85-14.55 31.7-15.24.79-.03 1.58-.05 2.37-.05 30.92 0 65.76 25.73 94.2 47.07h-78.53z" fill="#a737c2"/><ellipse cx="214.25" cy="164.28" rx="23.49" ry="28.87" fill="#a737c2"/><path d="M214.25 195.64c-14.33 0-25.99-14.07-25.99-31.37s11.66-31.37 25.99-31.37c4.89 0 9.65 1.64 13.78 4.75 1.1.83 1.32 2.4.49 3.5s-2.4 1.32-3.5.49c-3.25-2.45-6.97-3.74-10.76-3.74-11.57 0-20.99 11.83-20.99 26.37 0 14.54 9.41 26.37 20.99 26.37 4.09 0 8.06-1.49 11.47-4.3 1.07-.88 2.64-.73 3.52.34.88 1.07.73 2.64-.34 3.52-4.33 3.56-9.39 5.44-14.66 5.44zm14.69 131.64c-1.08 0-2.08-.71-2.4-1.8-.39-1.33.38-2.71 1.7-3.1 15.31-4.45 32.51-9.71 35.13-10.96a2.5 2.5 0 014.15 1.88c0 2.38 0 2.87-37.89 13.89-.23.06-.46.09-.69.09zm33.58-13.99zm0 0zm.06-.52z" fill="inherit"/><path d="M249.73 342.65c-.52 0-1.05-.16-1.5-.5l-2.25-1.69c-26.49-19.88-59.29-44.51-88.15-44.51-.72 0-1.44.02-2.16.05-10.56.46-24.05 5.53-28.35 13.21a2.496 2.496 0 01-3.4.96 2.496 2.496 0 01-.96-3.4c6.04-10.79 22.74-15.33 32.5-15.76 31.17-1.36 65.74 24.6 93.53 45.46l2.25 1.69c1.1.83 1.33 2.4.5 3.5-.5.65-1.25.99-2.01.99zm43.22-8.91c-.75 0-1.49-.33-1.98-.97a2.5 2.5 0 01.44-3.51c3.63-2.81 6.27-6.42 7.85-10.73 1.73-4.69 1.36-8.93-1.1-12.59-4.66-6.94-16.08-10.88-24.96-11.19-18.03-.63-35.53 6.5-51.77 14.31a2.5 2.5 0 01-3.34-1.17 2.5 2.5 0 011.17-3.34c16-7.7 34.94-15.47 54.11-14.8 9.83.35 23.08 4.69 28.93 13.4 3.35 4.99 3.92 10.91 1.64 17.1-1.91 5.2-5.1 9.56-9.48 12.95-.44.37-.98.54-1.51.54z" fill="inherit"/></svg>