<svg xmlns="http://www.w3.org/2000/svg" version="1.0" viewBox="96.2 211.9 441 664.1" aria-label="Teach Icon" fill="#d230f9"><path d="M225.222 211.896c-.95-.017-1.353.076-.855.235.224.054.536.085.856.09.319.006.644-.013.896-.058.453-.142.054-.25-.897-.267zm13.894.882c.108.002.231.027.359.077.396.208.743.414.741.514-.001.1-.354.194-.754.187-.4-.007-.747-.214-.742-.514.003-.17.167-.268.396-.264zm14.739 5.044c.15.003.397.207.541.51.146.253.041.502-.209.497-.3-.005-.546-.26-.541-.51.005-.3.109-.499.209-.497zm-40.768 85.147a.06.06 0 01.027.008h-.003l-.337.261a.743.743 0 01.235-.236c.028-.022.053-.033.075-.033zm-61.42 102.767c.2.004.43 3.913.544 8.622.115 4.758.39 8.92.635 9.224.684.913.948 16.74.248 16.728-.3-.006-1.919.866-3.59 1.937-1.797 1.162-2.552 1.631-3.092 1.621-.344-.006-.6-.205-.984-.543-.541-.51-.98-1.17-.973-1.52.005-.3-.284-.906-.628-1.262-.345-.357-.782-1.066-.974-1.52-.141-.503-1.323-1.626-2.558-2.55-1.828-1.335-2.218-1.943-2.196-3.144.015-.85-.504-2.563-1.183-3.777-.68-1.163-1.212-2.225-1.21-2.325 0-.05 1.056-.231 2.41-.407 1.306-.176 2.867-.699 3.427-1.19 1.523-1.174 6.398-10.448 6.428-12.1.025-1.402 3.045-7.806 3.696-7.794zm95.693 337.286c-.111-.002-.201.275-.17.71-.006.339.048.527.127.529.049 0 .108-.07.168-.224.157-.347.115-.799-.033-.952-.03-.042-.062-.063-.092-.063zm-6.43-531.067c-.93-.017-2.117.225-3.255.717-2.271 1.01-2.844 2.252-1.094 2.384.5.009.598.16.245.305a.682.682 0 01-.185.018c-.4-.007-1.052-.25-1.557-.6-.593-.462-1.688-.832-2.388-.845-1.001-.018-1.1-.12-.49-.56.331-.232.413-.345.18-.35h-.003c-.159-.002-.46.044-.925.137-.805.185-1.56.472-1.665.72-.071.17-.257.267-.493.262a1.041 1.041 0 01-.362-.077.876.876 0 00-.342-.075c-.262-.005-.521.103-.663.307-.206.35-.476.514-.713.51-.298-.006-.543-.28-.534-.782.007-.4-.146-.582-.62-.59-.237-.005-.555.034-.974.11-.904.184-1.712.52-1.816.768-.105.249-.81.436-1.51.474-.752-.014-1.055.13-.707.287 1.044.42.632 1.063-.874 1.236-.291.037-.53.055-.716.051-.488-.009-.628-.164-.477-.523.115-.266.03-.385-.184-.388-.665-.013-2.585 1.079-3.705 2.27-.665.79-1.527 1.375-1.878 1.368-1.852-.033-5.258 5.613-5.317 8.866-.02 1.102-.24 2.15-.542 2.294-.253.145-.514.742-.524 1.242-.01.55-.472 1.193-1.028 1.484-.556.29-1.019.983-1.028 1.483-.01.55-.218.997-.519.992-.4-.007-.926 1.385-1.942 4.972-.108.399-.406 3.047-.607 5.847-.273 4.05-.197 5.354.338 6.265.388.658.86 2.218.986 3.573.102.754.254 1.526.421 2.112h-.003q-.897 4.798-.888 5.055-.318 2.146-.03 3.438 2.673 8.4 6.687 8.473.252.005.508-.023v.01h-.002c-.08.112-.175.222-.284.327-.459.443-.464.743-.022 1.202.168.174.297.378.388.594h-.003q.033.753.07 1.433h-.002c-.099.263-.267.472-.5.575-.205.084-.19.138.016.142.116.002.292-.012.524-.045h.002q.114 1.8.269 3.033l.523 3.303q.62 4.97.812 5.993.393 2.372.848 3.973.815 3.106 2.694 5.226h-.003c-.308.175-.87.308-1.78.477-.854.185-2.218.86-3.03 1.497-.814.686-3.504 2.69-6.04 4.447-.605.44-1.19.872-1.729 1.277h-.002q-48.17 13.581-54.528 15.612-5.56 1.6-7.356 3.794-1.818 1.94-3.678 7.156l-17.583 49.62h-.002q-13.195 23.22-17.431 33.661-5.733 13.423-4.177 20.74.963 6.36 8.273 14.776 10.04 11.672 35.608 37.64h-.003l-7.948 49.532q5.154 3.438 11.574 4.61 5.97 1.152 16.615 1.827h-.003q-2.207 8.343-2.834 20.032-.793 13.962.367 33.572-.025 5.17 5.706 67.51.945 12.207 1.12 23.453.193 12.361-.591 24.615-.23 5.616-2.966 32.245l-.611 9.07q-.46 10.228.359 21.308 1.827 23.338 6.897 42.633 3.344 12.539 6.93 15.597h-.004q-.444 3.978-1.364 11.266l-.34 4.098q-.31 5.968.996 9.798 2.4 8.772 17.974 10.812 3.426.3 6.354.353 13.31.241 16.36-4.622 4.079-5.041-2.609-25.599-2.241-6.694-4.165-10.629h-.003a.223.223 0 00.052-.132c.003-.154-.165-.44-.437-.794h-.003q7.174-17.14 7.747-29.979.145-4.468-.44-7.976l-4.193-19.97q-1.12-6.438-1.5-13.277-.85-14.51 1.83-34.238 2.135-16.187 7.159-41.49 1.164-6.522 10.94-52.091h.003q1.383 6.353 3.065 13.06l10.466 39.973q2.571 10.988 3.767 21.408.956 8.563 1.099 17.348h-.004c-.38.519-.343.832-.014 1.241l.038.043h-.004q.053 5.575-.22 11.238l-.018.383-.007-.001-.007.39h-.004q-.296 6.234-1.037 14.607-4.237 41.867-4.24 44.617l-.009.133h-.003q-2.205 17.436-2.54 24.392-.234 3.856-.189 7.35l.43 12.68q.156 1.182-1.539 9.714l-.205 2.689q.024 3.15 1.446 4.936 1.788 2.432 7.28 3.747 1.98.643 10.197 1.624h-.004a.485.485 0 01.142.123c.244.355 5.913 2.51 7.658 2.892.499.11 1.59.73 2.48 1.347 2.398 1.859 9.927 4.021 16.862 5.123h-.004q.72.675.88.687 1.25.786 3.01.934 11.753.095 16.032-2.023 6.878-2.939 7.457-7.503.184-2.341-2.026-4.982-.04-.517-9.297-9.01-5.446-6.909-18.096-20.557h-.003l.08-.143h-.004c1.076-.35 2.279-1.716 1.9-2.328-.045-.097-.23-.19-.512-.275h-.004q5.009-9.984 8.619-25.288 6.333-26.175 9.797-78.692 2.99-46.814.944-90.017-1.06-27.053-6.404-68.378h-.004q6.521-.992 16.813-13.076l-25.25-99h.005q2.12 1.914 4.932 4.061 7.189 5.37 11.029 6.897 1.789.785 4.063.827 1.65.03 3.553-.332 3.012-.51 8.732-1.86h-.004c1.087-.091 1.782-.19 1.9-.284.155-.128.52-.271 1.003-.411h-.004l1.094-.266h-.004c.378-.08.78-.153 1.181-.215 1.507-.273 4.17-.726 5.978-1.093 1.81-.368 4.623-.918 6.28-1.188 1.659-.321 4.121-.827 5.48-1.203 1.308-.377 2.866-.65 3.416-.64.951.018 3.518-.687 7.95-2.109a96.728 96.728 0 013.525-1.137c.537-.187 1.567-.523 2.732-.89h.004l-.23.19q12.158-2.683 17.517-4.613 6.17-2.146 9.371-4.807 4.049-3.323 4.805-9.181h-.004q.33-.164.619-.318 4.977-2.945 6.22-3.57 1.485-.754 2.307-.904l.03-.054h.005q5.073 1.264 6.852 1.57.899.155 1.737.17 1.57.029 2.928-.434 4.004-1.117 10.84-9.26 3.733-4.55 5.258-7.491 1.237-2.343.568-4.065-.444-.862-.987-1.698h-.005a8.568 8.568 0 00-.035-.785 6.272 6.272 0 00-.204-1.17h-.005l105.283-59.125q2.046-1.542 1.493-3.845-.77-2.363-3.26-2.579h-.03q-1.031.003-1.782.445l-107.594 60.416-.105-.06q-1.032-.604-2.428-1.101h-.005q-1.255-.535-2.513-.74h-.005q-1.238-.3-2.672-.543l-.016-.002q-1.61-.277-3.007-.302-.815-.015-1.558.056-3.759.497-4.91 1.148-1.895.946-3.27 2.266-1.2 1.161-2.69 2.76-2.777 3.269-4.327 4.805-1.63 1.665-2.767 2.36-1.371.868-3.114 1.488l-4.262 1.164-.43-1.243q-.12-.326-.214-.51-.577-1.169-1.59-1.482-2.096-.69-4.012-.787h-.012q.017-.052-.172-.056-1.096-.02-9.103 1.607l-.03.055h-.005q-3.871.284-8.722 1.045-15.745 2.37-43.824 9.45-.379-2.998-.75-5.856h-.004c.202-1.857.083-2.68-.549-4.25h-.004q-3.748-28.295-6.63-41.86-3.191-15.686-7.097-25.11h-.004c-.067-.328-.264-.82-.54-1.334l-.139-.262h-.004q-.649-1.452-1.317-2.736-4.641-8.938-11.826-13.03-2.957-1.676-6.287-2.562-1.336-.512-7.077-1.243h-.003c-2.912-2.072-4.627-2.915-6.283-3.055h-.003q-.365-.514-.743-1.037-4.267-5.83-9.869-11.792h-.003q1.086-6.444 2.18-9.919.073-.319.232-.778h-.003a.352.352 0 01.228-.09c.246.004.262-.264.073-.694h-.003q.86-2.157 2.979-6.346.498-1.16.871-2.546.78-2.87 1.31-8.364.267-3.014.491-5.746h-.003l2.149-4.016q.293-.556.47-.944.587-1.273.76-2.549.343-2.323-.486-6.77-.652-3.397-1.483-5.643h.004c.112.02.222.03.327.032.79.014 1.314-.453.863-1.276-.24-.505-.28-1.057-.127-1.255.204-.196.421-1.143.44-2.194.068-1 .307-3.1.535-4.647.34-2.147.257-3.15-.323-4.312-.385-.858-.715-1.966-.656-2.466.07-1.1-3.457-10.927-4.003-11.187-.249-.105-.394-.408-.39-.608.005-.25-1.071-1.672-2.446-3.149-1.326-1.476-2.45-2.998-2.444-3.299.006-.35-.188-.654-.439-.658-.25-.005-.589-.662-.774-1.466-.366-1.91-3.021-4.612-4.473-4.638-.65-.012-1.747-.282-2.543-.597-.472-.183-.833-.277-1.09-.282-.256-.005-.408.08-.461.254-.114.349-.573.531-.971.524-.342-.006-.638-.152-.633-.453.009-.471-1.164-.874-2.057-.89-.434-.008-.801.075-.936.286-.112.171-.24.258-.395.255-.202-.003-.446-.16-.753-.476-.392-.458-1.086-.821-1.487-.828-.45-.009-.847-.216-.943-.418-.162-.491-.817-.741-1.702-.757z" fill="inherit"/></svg>