<svg xmlns="http://www.w3.org/2000/svg" version="1.0" viewBox="100.1 87.4 225 250.4" aria-label="School Podium Line Style Icon"><path d="M215.461 200.461a6.5 6.5 0 01-6.5-6.5v-41.815l-3.543 3.543a6.5 6.5 0 01-9.192 0l-18.645-18.645a6.5 6.5 0 010-9.192l32.073-32.072a6.5 6.5 0 014.596-1.904h27.58a6.5 6.5 0 016.5 6.5v93.585a6.5 6.5 0 01-6.5 6.5h-26.369z"/><path d="M241.829 100.376v93.585h-26.367v-57.508l-14.64 14.64-18.645-18.645 32.072-32.072h27.58m0-13H214.25a13 13 0 00-9.192 3.808l-32.072 32.072a13 13 0 000 18.384l18.645 18.645a12.96 12.96 0 009.192 3.808c.548 0 1.096-.034 1.64-.103v29.971c0 7.18 5.82 13 13 13h26.367c7.18 0 13-5.82 13-13v-93.585c-.001-7.18-5.821-13-13.001-13z" fill="#d230f9"/><path d="M178.655 331.324a6.5 6.5 0 01-6.5-6.5v-96.169c0-16.173 13.157-29.33 29.33-29.33h47.738c16.172 0 29.33 13.157 29.33 29.33v96.169a6.5 6.5 0 01-6.5 6.5h-93.398z"/><path d="M249.222 205.825c12.609 0 22.83 10.221 22.83 22.83v96.169h-93.398v-96.169c0-12.609 10.221-22.83 22.83-22.83h47.738m0-13h-47.738c-19.757 0-35.83 16.073-35.83 35.83v96.169c0 7.18 5.82 13 13 13h93.398c7.18 0 13-5.82 13-13v-96.169c0-19.757-16.073-35.83-35.83-35.83z" fill="#d230f9"/><path d="M113.104 331.324a6.5 6.5 0 01-6.5-6.5v-53.607c0-16.173 13.157-29.33 29.33-29.33h47.738c16.173 0 29.33 13.157 29.33 29.33v53.607a6.5 6.5 0 01-6.5 6.5h-93.398z"/><path d="M183.672 248.387c12.609 0 22.83 10.221 22.83 22.83v53.607h-93.398v-53.607c0-12.609 10.221-22.83 22.83-22.83h47.738m0-13h-47.738c-19.757 0-35.83 16.073-35.83 35.83v53.607c0 7.18 5.82 13 13 13h93.398c7.18 0 13-5.82 13-13v-53.607c0-19.756-16.073-35.83-35.83-35.83z" fill="#d230f9"/><path d="M218.698 331.324a6.5 6.5 0 01-6.5-6.5v-10.781c0-16.173 13.157-29.33 29.33-29.33h47.738c16.173 0 29.33 13.157 29.33 29.33v10.781a6.5 6.5 0 01-6.5 6.5h-93.398z"/><path d="M289.266 291.213c12.609 0 22.83 10.221 22.83 22.83v10.781h-93.398v-10.781c0-12.609 10.221-22.83 22.83-22.83h47.738m0-13h-47.738c-19.757 0-35.83 16.073-35.83 35.83v10.781c0 7.18 5.82 13 13 13h93.398c7.18 0 13-5.82 13-13v-10.781c0-19.757-16.073-35.83-35.83-35.83z" fill="#d230f9"/></svg>